HIERARCHY
ROOT joint_0
{
	OFFSET 0.000000 0.000000 0.000000
	CHANNELS 6 Xposition Yposition Zposition Zrotation Yrotation Xrotation 
	JOINT joint_1
	{
		OFFSET 4.520508 -1.939880 86.268921
		CHANNELS 3 Zrotation Yrotation Xrotation
		JOINT joint_2
		{
			OFFSET -4.459717 -0.438538 78.934082
			CHANNELS 3 Zrotation Yrotation Xrotation
			JOINT joint_3
			{
				OFFSET -5.197754 -0.781128 78.796997
				CHANNELS 3 Zrotation Yrotation Xrotation
				JOINT joint_4
				{
					OFFSET 2.952026 -3.710571 109.812988
					CHANNELS 3 Zrotation Yrotation Xrotation
					JOINT joint_5
					{
						OFFSET 24.716797 -5.488037 87.903931
						CHANNELS 3 Zrotation Yrotation Xrotation
						End Site
						{
							OFFSET 0.000000 0.000000 0.000000
						}
					}
				}
				JOINT joint_6
				{
					OFFSET -3.154419 -25.484680 60.934937
					CHANNELS 3 Zrotation Yrotation Xrotation
					JOINT joint_7
					{
						OFFSET -28.997192 -144.472229 -32.671997
						CHANNELS 3 Zrotation Yrotation Xrotation
						JOINT joint_8
						{
							OFFSET 19.867676 -18.614380 -249.897949
							CHANNELS 3 Zrotation Yrotation Xrotation
							JOINT joint_9
							{
								OFFSET 5.281982 -13.816650 -264.993042
								CHANNELS 3 Zrotation Yrotation Xrotation
								End Site
								{
									OFFSET 0.000000 0.000000 0.000000
								}
							}
						}
					}
				}
				JOINT joint_10
				{
					OFFSET 6.494995 21.336792 62.257935
					CHANNELS 3 Zrotation Yrotation Xrotation
					JOINT joint_11
					{
						OFFSET 31.106567 145.200745 -27.007935
						CHANNELS 3 Zrotation Yrotation Xrotation
						JOINT joint_12
						{
							OFFSET 29.119141 24.684326 -248.460083
							CHANNELS 3 Zrotation Yrotation Xrotation
							JOINT joint_13
							{
								OFFSET 21.220093 31.248413 -262.703979
								CHANNELS 3 Zrotation Yrotation Xrotation
								End Site
								{
									OFFSET 0.000000 0.000000 0.000000
								}
							}
						}
					}
				}
			}
		}
	}
	JOINT joint_14
	{
		OFFSET -15.458496 -88.861694 -109.593018
		CHANNELS 3 Zrotation Yrotation Xrotation
		JOINT joint_15
		{
			OFFSET -6.193359 6.837952 -506.710999
			CHANNELS 3 Zrotation Yrotation Xrotation
			JOINT joint_16
			{
				OFFSET -35.096680 13.289795 -435.677025
				CHANNELS 3 Zrotation Yrotation Xrotation
				JOINT joint_17
				{
					OFFSET 158.491211 -33.916565 -71.771002
					CHANNELS 3 Zrotation Yrotation Xrotation
					End Site
					{
						OFFSET 0.000000 0.000000 0.000000
					}
				}
			}
		}
	}
	JOINT joint_18
	{
		OFFSET 23.116943 86.574158 -110.082031
		CHANNELS 3 Zrotation Yrotation Xrotation
		JOINT joint_19
		{
			OFFSET -6.125854 -0.283569 -506.757019
			CHANNELS 3 Zrotation Yrotation Xrotation
			JOINT joint_20
			{
				OFFSET -63.240234 11.589966 -432.537994
				CHANNELS 3 Zrotation Yrotation Xrotation
				JOINT joint_21
				{
					OFFSET 156.074219 -41.487305 -73.077999
					CHANNELS 3 Zrotation Yrotation Xrotation
					End Site
					{
						OFFSET 0.000000 0.000000 0.000000
					}
				}
			}
		}
	}
}
MOTION
Frames: 9
Frame Time: 0.016667
-2153.886719 954.721252 1140.755981 6.882742 -0.233437 -0.022668 -0.271528 0.605760 -1.145515 -0.195578 -0.144514 0.255157 -0.219136 0.131264 -0.140808 -0.345952 2.063378 1.699502 0.000000 0.000000 0.000000 3.428389 -0.692052 -2.130738 0.486066 -1.253135 4.021736 0.028236 -1.591164 -2.372520 0.000000 0.000000 0.000000 -5.213854 -0.705483 -1.994604 0.169025 -0.605673 2.209377 -0.263228 -1.873166 -0.410857 0.000000 0.000000 0.000000 -0.211909 -3.133546 -1.752643 -0.134792 3.228052 1.199541 -0.112350 -0.560441 -0.170876 0.000000 0.000000 0.000000 0.505578 -3.410545 -0.463335 0.527112 0.739585 -0.720275 0.353878 1.993611 0.695592 0.000000 0.000000 0.000000 
-2154.021973 954.664978 1140.776001 6.873458 -0.247642 -0.011978 -0.274892 0.618404 -1.145263 -0.199076 -0.144633 0.254011 -0.222553 0.131679 -0.140768 -0.344244 2.082953 1.697600 0.000000 0.000000 0.000000 3.419254 -0.691911 -2.126651 0.485821 -1.254156 4.021400 0.028800 -1.601307 -2.370604 0.000000 0.000000 0.000000 -5.203329 -0.692628 -2.003903 0.168203 -0.593493 2.193488 -0.262140 -1.869910 -0.402923 0.000000 0.000000 0.000000 -0.208638 -3.130017 -1.760738 -0.131592 3.233881 1.197785 -0.109474 -0.556681 -0.168771 0.000000 0.000000 0.000000 0.512860 -3.412563 -0.475606 0.534251 0.757983 -0.716866 0.360505 2.001455 0.700777 0.000000 0.000000 0.000000 
-2154.142822 954.592712 1140.792969 6.863469 -0.260024 -0.003492 -0.274127 0.627133 -1.150139 -0.197953 -0.148588 0.256322 -0.221600 0.135315 -0.142068 -0.343764 2.101594 1.699735 0.000000 0.000000 0.000000 3.402548 -0.687006 -2.119442 0.486091 -1.252449 4.025247 0.028764 -1.602486 -2.372842 0.000000 0.000000 0.000000 -5.200842 -0.679835 -2.010789 0.168125 -0.580256 2.182379 -0.261562 -1.868022 -0.399001 0.000000 0.000000 0.000000 -0.205613 -3.125531 -1.766656 -0.128775 3.234449 1.198889 -0.106611 -0.549962 -0.166038 0.000000 0.000000 0.000000 0.519799 -3.416180 -0.484400 0.541088 0.777243 -0.713260 0.366882 2.007078 0.705253 0.000000 0.000000 0.000000 
-2154.256836 954.508972 1140.801025 6.853471 -0.272723 0.002182 -0.271283 0.635305 -1.155045 -0.194692 -0.153260 0.259719 -0.218708 0.137816 -0.145208 -0.344328 2.120978 1.705666 0.000000 0.000000 0.000000 3.382706 -0.678162 -2.111336 0.486660 -1.247997 4.032159 0.028356 -1.597871 -2.377406 0.000000 0.000000 0.000000 -5.201567 -0.666438 -2.015580 0.168510 -0.565868 2.174041 -0.261104 -1.866215 -0.396331 0.000000 0.000000 0.000000 -0.202579 -3.119734 -1.769238 -0.125990 3.233620 1.201066 -0.103654 -0.542482 -0.163100 0.000000 0.000000 0.000000 0.526139 -3.418788 -0.489496 0.547348 0.796033 -0.708993 0.372841 2.011133 0.709116 0.000000 0.000000 0.000000 
-2154.364258 954.417664 1140.802979 6.844562 -0.286622 0.007739 -0.267586 0.643103 -1.159203 -0.190692 -0.157023 0.261785 -0.214888 0.141696 -0.146891 -0.344912 2.134411 1.710321 0.000000 0.000000 0.000000 3.359585 -0.667257 -2.104604 0.486777 -1.241753 4.035831 0.027986 -1.591964 -2.378654 0.000000 0.000000 0.000000 -5.204130 -0.653702 -2.023381 0.168984 -0.553022 2.168491 -0.260594 -1.865129 -0.391859 0.000000 0.000000 0.000000 -0.200053 -3.114110 -1.771406 -0.123626 3.236873 1.203660 -0.101153 -0.536673 -0.160725 0.000000 0.000000 0.000000 0.531287 -3.417885 -0.493556 0.552411 0.811533 -0.705294 0.377703 2.013202 0.711937 0.000000 0.000000 0.000000 
-2154.470215 954.317444 1140.797974 6.836829 -0.304465 0.013832 -0.265602 0.656356 -1.163822 -0.188353 -0.161034 0.264722 -0.212729 0.145271 -0.147694 -0.344469 2.143608 1.710490 0.000000 0.000000 0.000000 3.341850 -0.654366 -2.100625 0.486015 -1.231722 4.034646 0.027952 -1.588787 -2.373934 0.000000 0.000000 0.000000 -5.198776 -0.640779 -2.037195 0.169517 -0.543763 2.167664 -0.259879 -1.864562 -0.383981 0.000000 0.000000 0.000000 -0.197833 -3.107575 -1.773962 -0.121442 3.247963 1.206698 -0.098967 -0.535677 -0.159525 0.000000 0.000000 0.000000 0.534824 -3.409916 -0.496658 0.555848 0.822251 -0.702951 0.381007 2.012139 0.713197 0.000000 0.000000 0.000000 
-2154.570557 954.210693 1140.786011 6.830822 -0.323762 0.019547 -0.262843 0.670259 -1.166966 -0.185350 -0.163293 0.267185 -0.209977 0.147420 -0.149634 -0.344638 2.149386 1.712028 0.000000 0.000000 0.000000 3.320671 -0.638779 -2.096948 0.484828 -1.219195 4.030692 0.027936 -1.584469 -2.366766 0.000000 0.000000 0.000000 -5.194615 -0.628253 -2.052589 0.170118 -0.535477 2.169018 -0.258958 -1.863877 -0.373668 0.000000 0.000000 0.000000 -0.196038 -3.100972 -1.775834 -0.119593 3.263321 1.209957 -0.097172 -0.536741 -0.158943 0.000000 0.000000 0.000000 0.537209 -3.398315 -0.498394 0.558137 0.829808 -0.701508 0.383209 2.009148 0.713428 0.000000 0.000000 0.000000 
-2154.655762 954.104980 1140.772949 6.826950 -0.342380 0.024432 -0.261436 0.681909 -1.166269 -0.184095 -0.168068 0.266691 -0.208606 0.151257 -0.149453 -0.344362 2.153347 1.711658 0.000000 0.000000 0.000000 3.303200 -0.621872 -2.094137 0.483601 -1.204177 4.024198 0.027563 -1.575632 -2.363399 0.000000 0.000000 0.000000 -5.189478 -0.615522 -2.068361 0.170394 -0.526586 2.166981 -0.257928 -1.862553 -0.363034 0.000000 0.000000 0.000000 -0.194864 -3.093086 -1.776507 -0.118406 3.276436 1.212630 -0.096002 -0.536149 -0.158288 0.000000 0.000000 0.000000 0.538243 -3.385370 -0.499804 0.559046 0.834898 -0.698717 0.384378 2.004463 0.712725 0.000000 0.000000 0.000000 
-2154.720459 954.005859 1140.758057 6.826813 -0.358692 0.028003 -0.262894 0.685596 -1.160512 -0.186013 -0.169377 0.265216 -0.210367 0.152616 -0.148869 -0.343122 2.157795 1.708097 0.000000 0.000000 0.000000 3.292988 -0.602689 -2.093416 0.482660 -1.185545 4.016825 0.026539 -1.559402 -2.368208 0.000000 0.000000 0.000000 -5.180442 -0.601942 -2.083060 0.169968 -0.515847 2.157375 -0.256320 -1.858185 -0.350006 0.000000 0.000000 0.000000 -0.194943 -3.083785 -1.775573 -0.118572 3.284101 1.214604 -0.096060 -0.532300 -0.157490 0.000000 0.000000 0.000000 0.537857 -3.373402 -0.501864 0.558484 0.839258 -0.692634 0.384671 1.996365 0.710704 0.000000 0.000000 0.000000 
